<svg width="24" height="24" viewBox="0 0 24 24" fill="none" xmlns="http://www.w3.org/2000/svg">
<g id="fi-rr-angle-left" clip-path="url(#clip0_63_16047)">
<path id="Vector" d="M6.83002 24C6.96162 24.0008 7.09209 23.9756 7.21392 23.9258C7.33576 23.876 7.44658 23.8027 7.54002 23.71L15.71 15.54C16.1756 15.0756 16.5451 14.5238 16.7971 13.9164C17.0492 13.3089 17.179 12.6577 17.179 12C17.179 11.3424 17.0492 10.6912 16.7971 10.0837C16.5451 9.47626 16.1756 8.92451 15.71 8.46005L7.54002 0.290063C7.44678 0.196825 7.33609 0.122864 7.21427 0.0724035C7.09244 0.0219432 6.96188 -0.00402832 6.83002 -0.00402832C6.69816 -0.00402832 6.56759 0.0219432 6.44577 0.0724035C6.32395 0.122864 6.21326 0.196825 6.12002 0.290063C6.02678 0.383301 5.95282 0.493991 5.90236 0.615813C5.8519 0.737635 5.82593 0.868203 5.82593 1.00006C5.82593 1.13192 5.8519 1.26249 5.90236 1.38431C5.95282 1.50613 6.02678 1.61682 6.12002 1.71006L14.29 9.88005C14.8518 10.4426 15.1674 11.205 15.1674 12C15.1674 12.7951 14.8518 13.5575 14.29 14.12L6.12002 22.29C6.02629 22.383 5.95189 22.4936 5.90112 22.6155C5.85036 22.7373 5.82422 22.868 5.82422 23C5.82422 23.132 5.85036 23.2628 5.90112 23.3846C5.95189 23.5065 6.02629 23.6171 6.12002 23.71C6.21346 23.8027 6.32427 23.876 6.44611 23.9258C6.56795 23.9756 6.69841 24.0008 6.83002 24Z" fill="#AAAAAA"/>
</g>
<defs>
<clipPath id="clip0_63_16047">
<rect width="24" height="24" fill="white" transform="matrix(-1 0 0 1 24 0)"/>
</clipPath>
</defs>
</svg>
