<svg width="27" height="27" viewBox="0 0 27 27" fill="none" xmlns="http://www.w3.org/2000/svg">
<path d="M13.5181 6.67659C17.2059 6.67659 20.2498 9.72051 20.2498 13.4083C20.2498 17.1547 17.2059 20.1401 13.5181 20.1401C9.77169 20.1401 6.7863 17.1547 6.7863 13.4083C6.7863 9.72051 9.77169 6.67659 13.5181 6.67659ZM13.5181 17.7986C15.9181 17.7986 17.8498 15.8669 17.8498 13.4083C17.8498 11.0083 15.9181 9.07661 13.5181 9.07661C11.0595 9.07661 9.12778 11.0083 9.12778 13.4083C9.12778 15.8669 11.118 17.7986 13.5181 17.7986ZM22.0645 6.44244C22.0645 7.3205 21.362 8.02294 20.484 8.02294C19.6059 8.02294 18.9035 7.3205 18.9035 6.44244C18.9035 5.56438 19.6059 4.86194 20.484 4.86194C21.362 4.86194 22.0645 5.56438 22.0645 6.44244ZM26.5133 8.02294C26.6304 10.1888 26.6304 16.6864 26.5133 18.8523C26.3962 20.9596 25.9279 22.7743 24.4059 24.3548C22.884 25.8767 21.0108 26.345 18.9035 26.4621C16.7376 26.5792 10.24 26.5792 8.07411 26.4621C5.96678 26.345 4.15213 25.8767 2.57163 24.3548C1.04967 22.7743 0.581373 20.9596 0.464299 18.8523C0.347225 16.6864 0.347225 10.1888 0.464299 8.02294C0.581373 5.91561 1.04967 4.04242 2.57163 2.52046C4.15213 0.998495 5.96678 0.530199 8.07411 0.413125C10.24 0.296051 16.7376 0.296051 18.9035 0.413125C21.0108 0.530199 22.884 0.998495 24.4059 2.52046C25.9279 4.04242 26.3962 5.91561 26.5133 8.02294ZM23.7035 21.1352C24.4059 19.4377 24.2303 15.3401 24.2303 13.4083C24.2303 11.5352 24.4059 7.43757 23.7035 5.68146C23.2352 4.56925 22.3572 3.63266 21.2449 3.2229C19.4888 2.52046 15.3912 2.69607 13.5181 2.69607C11.5863 2.69607 7.48874 2.52046 5.79117 3.2229C4.62043 3.6912 3.74237 4.56925 3.27408 5.68146C2.57163 7.43757 2.74724 11.5352 2.74724 13.4083C2.74724 15.3401 2.57163 19.4377 3.27408 21.1352C3.74237 22.306 4.62043 23.184 5.79117 23.6523C7.48874 24.3548 11.5863 24.1792 13.5181 24.1792C15.3912 24.1792 19.4888 24.3548 21.2449 23.6523C22.3572 23.184 23.2937 22.306 23.7035 21.1352Z" fill="white"/>
</svg>
