<svg width="108" height="10" viewBox="0 0 108 10" fill="none" xmlns="http://www.w3.org/2000/svg">
<g id="Group">
<path id="Vector" d="M82.903 0.257995C71.8646 -0.434478 58.8389 0.8868 47.495 0.713683C34.1233 -0.12508 17.0894 0.166608 3.71615 0.166608C3.71615 0.58599 4.83078 1.2148 3.71615 1.42475C3.59113 3.0835 1.80518 2.89285 1.80518 3.73135C1.80518 4.15073 5.14751 3.73135 4.03444 4.15073C5.33998 4.15073 5.50047 4.59989 5.02326 4.77955C3.90863 5.19919 4.03443 4.77955 2.92058 5.40862C1.80517 6.03769 4.03443 6.66676 2.92058 7.29532H1.35896C0.246673 7.71548 2.47359 8.55424 1.35896 8.55424C-1.98416 8.97362 8.04576 8.76367 3.59113 8.76367C3.59113 9.18331 2.47415 9.60243 4.70342 9.81238C43.7093 10.2315 66.1875 9.90378 105.192 9.27418C109.649 9.06475 106.305 8.22625 102.963 7.59692C104.076 7.80687 104.076 7.17753 105.192 7.38748C105.192 6.75841 102.963 5.70996 98.5041 5.50001H101.848C102.963 5.29058 101.848 4.87093 101.848 4.45207C100.732 4.45207 99.6187 4.45207 99.6187 4.24186V3.40336H104.076C102.963 3.40336 101.848 3.40336 101.848 3.19393V2.35439C99.6187 2.14521 96.2761 2.5646 94.0456 2.35439V1.72609C96.2761 1.51588 99.6187 1.72609 101.848 1.72609C100.732 1.51588 100.732 1.30645 100.732 0.88681C97.3895 0.676859 94.0456 1.30645 90.704 0.676857H94.0456C91.8177 -0.371597 86.2468 0.467686 82.903 0.257995Z" fill="#FA9F2B"/>
</g>
</svg>
