<svg width="99" height="6" viewBox="0 0 99 6" fill="none" xmlns="http://www.w3.org/2000/svg">
<path d="M75.568 0.122077C65.4251 -0.295728 53.456 0.501467 43.0324 0.397017C30.7454 -0.109052 15.0934 0.0669383 2.80505 0.0669383C2.80505 0.319973 3.82925 0.699367 2.80505 0.826041C2.69017 1.82685 1.0491 1.71182 1.0491 2.21773C1.0491 2.47077 4.12029 2.21773 3.09751 2.47077C4.29715 2.47077 4.44462 2.74176 4.00612 2.85016C2.98191 3.10336 3.09751 2.85016 2.07402 3.22972C1.04909 3.60927 3.09751 3.98882 2.07402 4.36806H0.639076C-0.382973 4.62156 1.66329 5.12763 0.639076 5.12763C-2.43283 5.38067 6.78342 5.25399 2.69017 5.25399C2.69017 5.50718 1.6638 5.76006 3.71223 5.88674C39.5538 6.13961 60.2085 5.94188 96.0487 5.56201C100.144 5.43565 97.0717 4.92974 94.0003 4.55003C95.0234 4.6767 95.0234 4.29699 96.0487 4.42367C96.0487 4.04412 94.0003 3.41153 89.9035 3.28486H92.9761C94.0003 3.15849 92.9761 2.9053 92.9761 2.65258C91.9508 2.65258 90.9277 2.65258 90.9277 2.52575V2.01984H95.0234C94.0003 2.01984 92.9761 2.01984 92.9761 1.89348V1.38694C90.9277 1.26073 87.8563 1.51377 85.8067 1.38694V1.00786C87.8563 0.881024 90.9277 1.00786 92.9761 1.00786C91.9508 0.881024 91.9508 0.754665 91.9508 0.501473C88.8793 0.374799 85.8067 0.754664 82.7362 0.374798H85.8067C83.7595 -0.257789 78.6405 0.248594 75.568 0.122077Z" fill="#0654FF"/>
</svg>
