<svg width="29" height="24" viewBox="0 0 29 24" fill="none" xmlns="http://www.w3.org/2000/svg">
<path id="image 64 (Traced)" fill-rule="evenodd" clip-rule="evenodd" d="M7.28348 0.0264281C5.905 0.123436 5.1947 0.372405 4.80809 0.894098C4.49958 1.31037 4.44187 1.65305 4.44187 3.0681V4.31954L4.64597 4.69399C4.93453 5.22313 5.34002 5.45863 6.2614 5.63219C7.0087 5.77295 9.42209 5.79114 12.9162 5.68242C15.5731 5.59979 16.3849 5.59428 17.9416 5.64838C21.5867 5.77517 22.1744 5.78352 22.6544 5.71527C23.63 5.57666 24.122 5.22762 24.3781 4.49247C24.5058 4.12593 24.5184 3.97521 24.5184 2.81118C24.5184 1.62941 24.5071 1.50024 24.371 1.1063C24.1876 0.576195 23.8108 0.208452 23.3191 0.0796202C22.9329 -0.021536 21.1393 -0.0246614 19.4567 0.0729714C18.0809 0.15276 15.7066 0.157647 13.4417 0.0854169C10.8061 0.0013663 8.01919 -0.0253434 7.28348 0.0264281ZM5.98379 9.11719C1.96314 9.26864 0.448597 9.94445 0.0613535 11.7599C-0.0330501 12.2022 -0.0151763 13.254 0.0920661 13.5716C0.377354 14.4166 1.04793 14.7381 2.79283 14.8663C3.65202 14.9295 4.9738 14.9056 9.5681 14.7437C12.7198 14.6327 16.7318 14.6137 19.987 14.6943C24.4336 14.8044 26.843 14.7971 27.399 14.6719C28.1519 14.5023 28.5769 14.2199 28.7979 13.7421C28.9713 13.3675 29.0491 12.5826 28.9675 12.0313C28.6775 10.0719 27.083 9.56137 20.5849 9.34769C15.4557 9.17896 7.62559 9.05536 5.98379 9.11719ZM15.2353 18.2675C14.595 18.2909 12.6408 18.3277 10.8928 18.3494C6.73229 18.4008 5.92853 18.4582 5.2915 18.7496C4.53526 19.0955 4.38353 19.5596 4.42494 21.4003C4.45376 22.6813 4.49668 22.9003 4.79223 23.2751C4.957 23.484 5.39371 23.6875 5.88939 23.7864C6.39633 23.8874 8.36622 23.8875 10.6725 23.7865C12.8587 23.6909 14.9355 23.7228 17.7842 23.8961C20.325 24.0506 22.1649 24.0323 22.9395 23.8448C23.8303 23.6292 24.3343 23.2529 24.5249 22.6612C24.6118 22.3913 24.6236 22.194 24.5909 21.5649C24.4692 19.2343 23.9669 18.6656 21.7492 18.3472C21.0199 18.2425 17.1973 18.1957 15.2353 18.2675Z" fill="#FFFAFA"/>
</svg>
