<svg width="27" height="19" viewBox="0 0 27 19" fill="none" xmlns="http://www.w3.org/2000/svg">
<path d="M25.7344 3.35938C26.2969 5.32812 26.2969 9.54688 26.2969 9.54688C26.2969 9.54688 26.2969 13.7188 25.7344 15.7344C25.4531 16.8594 24.5625 17.7031 23.4844 17.9844C21.4688 18.5 13.5 18.5 13.5 18.5C13.5 18.5 5.48438 18.5 3.46875 17.9844C2.39062 17.7031 1.5 16.8594 1.21875 15.7344C0.65625 13.7188 0.65625 9.54688 0.65625 9.54688C0.65625 9.54688 0.65625 5.32812 1.21875 3.35938C1.5 2.23438 2.39062 1.34375 3.46875 1.0625C5.48438 0.5 13.5 0.5 13.5 0.5C13.5 0.5 21.4688 0.5 23.4844 1.0625C24.5625 1.34375 25.4531 2.23438 25.7344 3.35938ZM10.875 13.3438L17.5312 9.54688L10.875 5.75V13.3438Z" fill="white"/>
</svg>
