<svg width="6" height="46" viewBox="0 0 6 46" fill="none" xmlns="http://www.w3.org/2000/svg">
<path id="Vector 28" d="M3 0.113247L0.113246 3L3 5.88675L5.88675 3L3 0.113247ZM3.5 56L3.5 54.9808L2.5 54.9808L2.5 56L3.5 56ZM3.5 52.9423L3.5 50.9038L2.5 50.9038L2.5 52.9423L3.5 52.9423ZM3.5 48.8654L3.5 46.8269L2.5 46.8269L2.5 48.8654L3.5 48.8654ZM3.5 44.7885L3.5 42.75L2.5 42.75L2.5 44.7885L3.5 44.7885ZM3.5 40.7115L3.5 38.6731L2.5 38.6731L2.5 40.7115L3.5 40.7115ZM3.5 36.6346L3.5 34.5962L2.5 34.5962L2.5 36.6346L3.5 36.6346ZM3.5 32.5577L3.5 30.5192L2.5 30.5192L2.5 32.5577L3.5 32.5577ZM3.5 28.4808L3.5 26.4423L2.5 26.4423L2.5 28.4808L3.5 28.4808ZM3.5 24.4038L3.5 22.3654L2.5 22.3654L2.5 24.4038L3.5 24.4038ZM3.5 20.3269L3.5 18.2885L2.5 18.2885L2.5 20.3269L3.5 20.3269ZM3.5 16.25L3.5 14.2115L2.5 14.2115L2.5 16.25L3.5 16.25ZM3.5 12.1731L3.5 10.1346L2.5 10.1346L2.5 12.1731L3.5 12.1731ZM3.5 8.09616L3.5 6.0577L2.5 6.0577L2.5 8.09616L3.5 8.09616ZM3.5 4.01924L3.5 3L2.5 3L2.5 4.01924L3.5 4.01924Z" fill="white"/>
</svg>
