<svg width="52" height="52" viewBox="0 0 52 52" fill="none" xmlns="http://www.w3.org/2000/svg">
<g id="Simplification">
<path id="Vector" d="M32.9946 6.65859C35.6517 7.57871 38.0237 8.95201 40.0909 10.8592C40.3009 11.0517 40.5158 11.2358 40.7336 11.4193C43.63 13.963 45.4672 17.7931 46.2942 21.4994C46.3139 21.5872 46.3337 21.675 46.3541 21.7655C46.6693 23.2686 46.7585 24.7852 46.7512 26.3173C46.7509 26.4391 46.7509 26.4391 46.7506 26.5633C46.7345 30.8028 45.6643 35.1071 43.1648 38.5936C43.1191 38.6581 43.0734 38.7225 43.0264 38.7889C42.3651 39.7162 41.6566 40.5791 40.8643 41.3972C40.7407 41.525 40.619 41.6547 40.4976 41.7845C37.0083 45.4286 31.7246 47.5168 26.7366 47.6549C21.4823 47.7473 16.1647 46.134 12.2366 42.5221C12.1055 42.39 11.9759 42.2563 11.8486 42.1206C11.6809 41.9458 11.5057 41.794 11.3186 41.6405C10.9196 41.3033 10.5911 40.9252 10.2585 40.5233C10.2154 40.4724 10.1724 40.4215 10.128 40.3691C7.18203 36.8795 5.29549 32.3773 5.25775 27.7772C5.25675 27.6772 5.25575 27.5771 5.25472 27.474C5.22147 23.2842 5.22147 23.2842 5.6882 21.4296C5.71325 21.3277 5.73831 21.2259 5.76412 21.121C6.11322 19.7406 6.57637 18.4377 7.21164 17.164C7.24859 17.0895 7.28554 17.015 7.32361 16.9383C9.27634 13.0422 12.3038 10.0437 16.1491 8.02334C16.2106 7.99039 16.2721 7.95745 16.3354 7.92351C17.3945 7.36217 17.3945 7.36217 17.9265 7.39492C18.3508 7.53887 18.5319 7.65603 18.7898 8.02334C18.9131 8.40248 18.9294 8.72654 18.7961 9.10879C18.3644 9.59277 17.7445 9.8746 17.1714 10.1642C15.6278 10.9456 14.2762 11.9369 13.0007 13.1015C12.8681 13.2213 12.8681 13.2213 12.7329 13.3435C9.40147 16.5086 7.64975 21.1995 7.50913 25.7234C7.40509 29.989 8.45906 34.1869 10.9694 37.6796C11.0841 37.8398 11.0841 37.8398 11.2011 38.0033C12.4748 39.7264 14.0476 41.1908 15.8444 42.3515C15.9148 42.3973 15.9852 42.4432 16.0576 42.4905C17.8005 43.6114 19.727 44.3921 21.7351 44.8905C21.8616 44.9226 21.8616 44.9226 21.9906 44.9552C26.0299 45.932 30.4272 45.2767 34.1257 43.4686C34.2252 43.4204 34.2252 43.4204 34.3267 43.3711C35.9906 42.5529 37.4357 41.4702 38.7976 40.2186C38.8831 40.1405 38.9686 40.0623 39.0566 39.9818C42.205 36.9677 44.2905 32.3427 44.3999 27.9946C44.4019 27.8412 44.4033 27.6878 44.4041 27.5344C44.4049 27.4513 44.4056 27.3682 44.4063 27.2825C44.4081 27.0158 44.4087 26.7491 44.4089 26.4823C44.409 26.3912 44.409 26.3001 44.4091 26.2062C44.4075 24.8642 44.3743 23.5568 44.0788 22.2421C44.0609 22.1608 44.0429 22.0795 44.0244 21.9957C43.8949 21.4277 43.7428 20.869 43.571 20.3124C43.5503 20.2451 43.5295 20.1778 43.5081 20.1085C42.9145 18.2499 41.9411 16.454 40.7273 14.9296C40.6834 14.8745 40.6396 14.8194 40.5945 14.7626C37.7545 11.2206 33.6023 8.67671 29.0476 8.1249C28.5772 8.07866 28.1066 8.03618 27.635 8.00516C27.153 7.96842 26.7963 7.93156 26.4069 7.61709C26.1208 7.1879 26.1226 6.80091 26.2038 6.29678C27.4066 4.74578 31.4062 6.13459 32.9946 6.65859Z" fill="white"/>
<path id="Vector_2" d="M27.5233 20.1093C27.9713 20.3741 28.3277 20.6854 28.6944 21.0526C28.7468 21.1048 28.7992 21.1571 28.8533 21.2109C29.0247 21.382 29.1954 21.5538 29.3661 21.7256C29.4857 21.8453 29.6052 21.9649 29.7248 22.0845C29.9745 22.3343 30.2238 22.5844 30.4729 22.8349C30.7925 23.1562 31.1127 23.4768 31.4332 23.7973C31.6797 24.0438 31.926 24.2906 32.1721 24.5375C32.2902 24.6559 32.4083 24.7742 32.5265 24.8925C32.6911 25.0573 32.8554 25.2224 33.0195 25.3877C33.1599 25.5286 33.1599 25.5286 33.303 25.6723C33.6096 25.9985 33.6722 26.2397 33.6636 26.6923C33.6069 26.9625 33.5162 27.0732 33.3297 27.2755C33.2648 27.3461 33.1999 27.4167 33.133 27.4895C32.6822 27.9604 32.226 28.4256 31.7659 28.8873C31.6855 28.9682 31.6855 28.9682 31.6035 29.0507C31.3206 29.335 31.0375 29.6191 30.7542 29.9029C30.4624 30.1952 30.1716 30.4884 29.881 30.7819C29.6562 31.0086 29.4307 31.2346 29.2051 31.4604C29.0975 31.5683 28.9902 31.6764 28.8832 31.7848C28.7337 31.936 28.5834 32.0861 28.4328 32.2361C28.3051 32.3643 28.3051 32.3643 28.1748 32.4952C27.8077 32.8064 27.5467 32.9084 27.0663 32.8999C26.6452 32.7871 26.4818 32.6248 26.203 32.2968C26.1695 32.2633 26.136 32.2298 26.1014 32.1953C26.0341 31.6847 26.0271 31.2982 26.3046 30.8559C26.4027 30.7572 26.5046 30.6621 26.6093 30.5703C26.6671 30.5189 26.725 30.4676 26.7846 30.4147C26.9182 30.2982 27.0526 30.1825 27.1877 30.0676C27.463 29.8226 27.7219 29.5632 27.9803 29.3007C28.3682 28.9085 28.7625 28.5338 29.1832 28.1772C29.3487 28.0336 29.502 27.8822 29.6561 27.7265C29.5455 27.7263 29.5455 27.7263 29.4326 27.7261C27.6372 27.7223 25.8419 27.7163 24.0466 27.7078C23.1783 27.7038 22.3101 27.7005 21.4419 27.699C20.6851 27.6977 19.9283 27.6949 19.1715 27.6905C18.7709 27.6882 18.3702 27.6866 17.9696 27.6867C17.5922 27.6868 17.215 27.685 16.8377 27.6817C16.6336 27.6804 16.4294 27.6812 16.2253 27.6819C15.1038 27.669 15.1038 27.669 14.6249 27.2187C14.3927 26.8801 14.4158 26.6308 14.4852 26.2412C14.562 25.9429 14.604 25.8184 14.8217 25.5937C15.2017 25.4094 15.4986 25.3771 15.9161 25.3745C16.037 25.3735 16.1579 25.3725 16.2825 25.3715C16.4817 25.3706 16.4817 25.3706 16.685 25.3697C16.8261 25.3688 16.9672 25.3677 17.1084 25.3667C17.4917 25.3639 17.875 25.3618 18.2584 25.3598C18.6589 25.3576 19.0595 25.3548 19.46 25.352C20.2186 25.347 20.9772 25.3424 21.7358 25.338C22.5994 25.333 23.4629 25.3274 24.3265 25.3218C26.103 25.3103 27.8796 25.2994 29.6561 25.289C29.6146 25.2479 29.5731 25.2068 29.5303 25.1645C29.098 24.7368 28.6665 24.3083 28.2353 23.8794C28.0744 23.7194 27.9132 23.5596 27.7518 23.4C27.5199 23.1706 27.2887 22.9405 27.0576 22.7103C26.9853 22.6391 26.913 22.5679 26.8386 22.4945C26.7379 22.3939 26.7379 22.3939 26.6353 22.2912C26.5762 22.2326 26.5171 22.174 26.4562 22.1135C26.1649 21.7753 26.1006 21.5847 26.1078 21.1313C26.1746 20.6949 26.3662 20.4882 26.7108 20.2109C27.0019 20.0653 27.1996 20.0782 27.5233 20.1093Z" fill="white"/>
<path id="Vector_3" d="M24.2221 6.09374C24.5351 6.46938 24.6164 6.72736 24.5775 7.21093C24.476 7.54736 24.476 7.54736 24.2729 7.8203C23.7473 8.08712 23.2398 8.2093 22.6605 8.30273C22.5842 8.31673 22.5079 8.33074 22.4293 8.34518C21.8899 8.43491 21.3539 8.46884 20.8197 8.32812C20.5223 8.07926 20.3559 7.90163 20.2639 7.51919C20.2354 7.13806 20.3071 6.91615 20.477 6.56982C21.1053 5.90539 23.4285 5.52666 24.2221 6.09374Z" fill="white"/>
</g>
</svg>
