<svg width="29" height="27" viewBox="0 0 29 27" fill="none" xmlns="http://www.w3.org/2000/svg">
<g id="Frame 1846">
<path id="image 64 (Traced)" fill-rule="evenodd" clip-rule="evenodd" d="M5.53251 17.9399C2.51604 21.1868 1.85062 22.8808 2.93043 24.5639C3.19352 24.974 4.00781 25.7605 4.33303 25.9186C5.1982 26.3394 5.96516 26.0617 7.42187 24.8002C8.13915 24.179 9.15053 23.1313 12.6059 19.4295C14.9763 16.8902 18.0868 13.7507 20.6836 11.2766C24.2309 7.89689 26.1021 6.01463 26.4399 5.48631C26.8973 4.77083 27.0134 4.22486 26.822 3.68915C26.6719 3.26898 26.1353 2.61114 25.6523 2.2552C23.9352 0.990071 22.3049 1.8435 17.0808 6.74238C12.9572 10.6092 6.76427 16.614 5.53251 17.9399Z" fill="#FFFAFA"/>
<path id="image 64 (Traced)_2" d="M14.4922 9.08191C15.8702 10.427 17.4203 11.9211 17.9369 12.4021C19.5197 13.8756 25.3453 19.7723 25.8336 20.42C27.3187 22.3897 27.2772 23.2137 25.5985 25.0819C25.1453 25.5862 24.986 25.7271 24.7129 25.8647C24.1142 26.1666 23.4352 26.0604 22.5774 25.5306C21.8313 25.0699 20.3843 23.6507 15.6392 18.6705C13.5521 16.3198 11.9588 14.6778 10.1832 13.0478C8.30995 11.3282 3.41146 6.42956 3.09348 5.95781C2.7826 5.49652 2.5973 5.0015 2.62797 4.71415C2.68296 4.19875 2.81615 3.9987 3.76848 3.00147C5.13695 1.56848 5.60832 1.3335 6.46054 1.65935C7.17845 1.93382 11.2124 5.88041 14.4922 9.08191Z" fill="#FFFAFA"/>
</g>
</svg>
