<svg width="93" height="4" viewBox="0 0 93 4" fill="none" xmlns="http://www.w3.org/2000/svg">
<path id="Vector" d="M71.6961 0.0813846C62.0729 -0.197152 50.7172 0.334312 40.8277 0.264678C29.1703 -0.0727016 14.3203 0.0446255 2.66165 0.0446255C2.66165 0.213315 3.63338 0.466245 2.66165 0.550694C2.55266 1.2179 0.995682 1.14121 0.995682 1.47849C0.995682 1.64718 3.90949 1.47849 2.93913 1.64718C4.07729 1.64718 4.2172 1.82784 3.80118 1.90011C2.82944 2.0689 2.93913 1.90011 1.96808 2.15314C0.995667 2.40618 2.93913 2.65921 1.96808 2.91204H0.606667C-0.363014 3.08104 1.5784 3.41842 0.606667 3.41842C-2.30784 3.58711 6.43616 3.50266 2.55266 3.50266C2.55266 3.67146 1.57889 3.84004 3.52234 3.92449C37.5274 4.09308 57.1237 3.96125 91.1274 3.70801C95.0131 3.62377 92.098 3.28649 89.184 3.03335C90.1546 3.1178 90.1546 2.86466 91.1274 2.94911C91.1274 2.69608 89.184 2.27435 85.297 2.1899H88.2122C89.184 2.10566 88.2122 1.93687 88.2122 1.76839C87.2394 1.76839 86.2688 1.76839 86.2688 1.68383V1.34656H90.1546C89.184 1.34656 88.2122 1.34656 88.2122 1.26232V0.924625C86.2688 0.840489 83.3548 1.00918 81.4102 0.924625V0.671903C83.3548 0.58735 86.2688 0.671903 88.2122 0.671903C87.2394 0.58735 87.2394 0.50311 87.2394 0.334316C84.3254 0.249866 81.4102 0.503109 78.497 0.249865H81.4102C79.4679 -0.171859 74.6112 0.165729 71.6961 0.0813846Z" fill="#2B71FA"/>
</svg>
