<svg width="1366" height="768" viewBox="0 0 1366 768" fill="none" xmlns="http://www.w3.org/2000/svg">
<path opacity="0.6" fill-rule="evenodd" clip-rule="evenodd" d="M1271.09 712.894C1276.82 710.079 1282.49 707.649 1288.11 705.679C1322.31 699.252 1361.76 709.884 1398.62 719.818C1416.13 724.539 1433.06 729.102 1448.57 731.602C1448.58 727.462 1448.73 723.404 1449 719.422C1436.35 717.202 1422.92 713.996 1409.13 710.704C1372.16 701.877 1332.6 692.43 1298.35 699.699C1289.41 703.041 1280.31 707.539 1271.09 712.894ZM1565.83 432.609C1594.09 436.835 1628.73 439.632 1637.94 416.904C1620.69 428.388 1588.56 424.156 1564.97 421.05L1564.7 421.014C1565.21 424.948 1565.58 428.811 1565.83 432.609ZM1726.66 174.119C1740.82 157.49 1757.16 142.901 1776.04 131.07C1793.46 124.961 1814.52 134.186 1832.79 142.186C1850.64 150.006 1865.82 156.657 1872.33 146.674C1874.55 143.233 1875.85 139.643 1876.43 135.937C1868.62 139.042 1856.12 133.987 1841.95 128.254C1823.61 120.839 1802.48 112.288 1785.04 118.794C1762 133.695 1742.76 152.562 1726.66 174.119ZM1381.67 -3.23374C1293.13 -4.49738 1204.12 -5.77786 1114.08 -13.13C1025.25 34.7556 447.897 14.0055 301.529 -21.579C299.887 -21.5161 298.249 -21.4668 296.613 -21.4176C293.74 -21.3311 290.872 -21.2448 288.001 -21.0854C207.737 -34.0857 109.155 -32.342 37.9038 9.13986C10.083 31.3746 -18.3904 57.9987 -46.8397 84.6003C-52.2862 89.6931 -57.7318 94.785 -63.1718 99.8451C-57.506 108.849 -52.0334 117.844 -46.8066 126.801C-45.0622 125.14 -43.3174 123.479 -41.5726 121.817C-13.1692 94.7663 15.2582 67.6929 43.0485 44.9744C114.281 2.07069 213.049 -2.29924 293.519 8.39216C296.396 8.1575 299.269 7.99521 302.148 7.83258C303.786 7.74001 305.427 7.64732 307.072 7.54111C453.861 38.7745 1032.42 43.7775 1121.24 -5.92632C1208.87 -1.21952 1295.5 -2.14317 1381.67 -3.23374ZM-42.9043 161.005C-69.172 157.333 -93.2977 156.727 -104.776 174.415C-152.431 205.668 -153.237 244.483 -142.203 292.004C-143.51 261.643 -133.561 235.274 -99.2793 212.123C-85.5469 190.76 -53.4328 194.985 -21.2761 199.216L-21.158 199.231C-27.7707 186.606 -35.0759 173.836 -42.9043 161.005ZM-115.143 404.993C-115.221 413.065 -115.919 421.4 -116.624 429.815C-118.448 451.594 -120.318 473.911 -111.592 493.594C-111.735 484.097 -110.951 474.405 -110.175 464.818C-108.519 444.349 -106.902 424.359 -114.426 407.774C-114.663 406.844 -114.902 405.917 -115.143 404.993ZM-111.1 503.085C-129.075 500.209 -139.698 498.496 -159.29 495.282C-161.351 510.573 -148.444 509.886 -134.99 509.17C-124.278 508.6 -113.219 508.012 -109.093 515.453C-110.068 511.408 -110.709 507.276 -111.1 503.085ZM-107.495 521.068C-107.148 524.895 -107.811 529.881 -109.785 536.361C-106.473 536.796 -102.937 537.258 -99.048 537.767C-102.849 532.473 -105.576 526.878 -107.495 521.068ZM-115.053 535.67C-121.076 532.727 -127.453 532.376 -133.982 533.165C-127.543 534.024 -121.643 534.804 -115.053 535.67ZM-152.45 537.155C-160.531 539.162 -168.566 540.855 -176.198 539.618C-174.339 559.604 -161.231 567.009 -147.055 572.224C-145.619 571.841 -144.181 571.444 -142.744 571.046C-129.151 567.287 -115.55 563.526 -103.588 572.041C-93.3395 540.956 -111.244 542.376 -128.274 543.727C-139.421 544.611 -150.193 545.465 -152.45 537.155ZM-168.095 582.149C-170.425 585.516 -172.231 590.926 -173.325 598.989C-174.322 606.395 -165.922 610.459 -156.94 612.883C-148.402 608.711 -135.99 619.65 -124.828 629.487C-115.162 638.005 -106.433 645.698 -101.969 642.036C-98.9007 618.93 -114.955 614.067 -132.199 608.844C-147.199 604.3 -163.1 599.483 -168.095 582.149ZM-163.433 621.137C-208.18 636.562 -234.004 672.229 -213.186 718.386C-211.324 683.858 -179.266 658.474 -135.685 649.225L-135.904 649.196C-146.698 647.749 -167.848 644.913 -166.341 633.511C-165.655 628.36 -164.668 624.288 -163.433 621.137ZM-209.607 743.112C-213.291 741.339 -217.079 739.321 -220.921 737.275C-235.827 729.334 -251.558 720.954 -265.301 724.72C-265.3 724.922 -265.272 725.097 -265.244 725.276C-265.224 725.403 -265.204 725.531 -265.193 725.672C-260.026 726.999 -253.215 730.703 -246.394 734.412C-238.79 738.547 -231.174 742.688 -225.807 743.553C-234.352 742.194 -242.917 740.809 -251.48 739.424C-255.427 738.786 -259.373 738.148 -263.316 737.513C-261.852 745.813 -260.112 754.008 -258.248 762.21C-252.41 767.341 -246.514 771.885 -240.409 774.874C-233.059 775.848 -225.709 776.819 -218.374 777.773C-223.755 777.063 -231.402 773.174 -239.036 769.293C-245.885 765.811 -252.723 762.334 -257.905 761.161C-257.917 761.022 -257.938 760.896 -257.958 760.772C-257.987 760.595 -258.015 760.423 -258.018 760.224C-244.262 756.133 -228.468 763.992 -213.503 771.438C-203.768 776.282 -194.383 780.951 -186.139 782.042C-197.907 768.442 -205.524 755.388 -209.607 743.112ZM-248.216 799.205C-240.057 805.747 -231.75 810.902 -222.903 812.112C-230.242 811.109 -237.6 810.143 -244.98 809.182C-246.086 805.885 -247.165 802.558 -248.216 799.205Z" fill="#B32ABF"/>
</svg>
