<svg width="251" height="65" viewBox="0 0 251 65" fill="none" xmlns="http://www.w3.org/2000/svg">
<path id="Vector" d="M193.502 63.6775C167.53 68.2037 136.882 59.5674 110.191 60.699C78.7286 66.1814 38.6495 64.2748 7.18359 64.2748C7.18359 61.5336 9.80621 57.4235 7.18359 56.0512C6.88945 45.2091 2.68729 46.4553 2.68729 40.9746C2.68729 38.2333 10.5514 40.9746 7.9325 38.2333C11.0043 38.2333 11.3819 35.2976 10.2591 34.1232C7.63647 31.3803 7.9325 34.1232 5.31171 30.0114C2.68724 25.8996 7.9325 21.7878 5.31171 17.6794H1.63736C-0.979736 14.9331 4.25998 9.45066 1.63736 9.45066C-6.22867 6.70945 17.3707 8.08174 6.88945 8.08174C6.88945 5.33883 4.26129 2.59933 9.50655 1.22702C101.284 -1.51249 154.173 0.629662 245.946 4.74488C256.433 6.11378 248.566 11.5945 240.701 15.708C243.32 14.3357 243.32 18.4492 245.946 17.0769C245.946 21.1888 240.701 28.0418 230.21 29.4141H238.078C240.701 30.783 238.078 33.5259 238.078 36.2637C235.453 36.2637 232.833 36.2637 232.833 37.6377V43.1184H243.32C240.701 43.1184 238.078 43.1184 238.078 44.4873V49.9748C232.833 51.342 224.968 48.6008 219.72 49.9748V54.0816C224.968 55.4556 232.833 54.0816 238.078 54.0816C235.453 55.4556 235.453 56.8245 235.453 59.5674C227.588 60.9397 219.72 56.8245 211.857 60.9397H219.72C214.478 67.7927 201.37 62.3069 193.502 63.6775Z" fill="#CF13C1"/>
</svg>
