<svg width="99" height="30" viewBox="0 0 99 30" fill="none" xmlns="http://www.w3.org/2000/svg">
<path id="Vector" d="M76.3217 29.3896C66.0777 31.4786 53.9893 27.4927 43.4617 28.0149C31.0523 30.5453 15.2442 29.6653 2.83337 29.6653C2.83337 28.4001 3.86779 26.5032 2.83337 25.8698C2.71735 20.8658 1.05992 21.4409 1.05992 18.9113C1.05992 17.6462 4.16172 18.9113 3.12875 17.6462C4.34035 17.6462 4.48928 16.2912 4.04642 15.7492C3.01199 14.4832 3.12875 15.7492 2.09505 13.8514C1.05991 11.9537 3.12875 10.0559 2.09505 8.15971H0.645813C-0.386436 6.89219 1.68023 4.36184 0.645813 4.36184C-2.45673 3.09667 6.8514 3.73003 2.71735 3.73003C2.71735 2.46408 1.68075 1.19969 3.74959 0.566319C39.9485 -0.698071 60.8091 0.290613 97.0065 2.18994C101.143 2.82174 98.0398 5.35131 94.9378 7.24986C95.971 6.61649 95.971 8.51503 97.0065 7.88166C97.0065 9.77942 94.9378 12.9424 90.8001 13.5757H93.9033C94.9378 14.2075 93.9033 15.4735 93.9033 16.7371C92.8678 16.7371 91.8345 16.7371 91.8345 17.3712V19.9008H95.971C94.9378 19.9008 93.9033 19.9008 93.9033 20.5326V23.0653C91.8345 23.6963 88.7325 22.4312 86.6625 23.0653V24.9607C88.7325 25.5949 91.8345 24.9607 93.9033 24.9607C92.8678 25.5949 92.8678 26.2267 92.8678 27.4926C89.7657 28.126 86.6625 26.2267 83.5613 28.126H86.6625C84.5949 31.2889 79.4249 28.757 76.3217 29.3896Z" fill="#0117F1"/>
</svg>
