<svg width="381" height="65" viewBox="0 0 381 65" fill="none" xmlns="http://www.w3.org/2000/svg">
<path d="M293.723 63.6775C254.299 68.2037 207.777 59.5674 167.262 60.699C119.504 66.1814 58.6672 64.2748 10.9042 64.2748C10.9042 61.5336 14.8851 57.4235 10.9042 56.0512C10.4577 45.2091 4.07907 46.4553 4.07907 40.9746C4.07907 38.2333 16.0163 40.9746 12.0409 38.2333C16.7037 38.2333 17.2769 35.2976 15.5725 34.1232C11.5916 31.3803 12.0409 34.1232 8.06277 30.0114C4.07904 25.8996 12.0409 21.7878 8.06277 17.6794H2.48538C-1.48718 14.9331 6.46634 9.45066 2.48538 9.45066C-9.45468 6.70945 26.3675 8.08174 10.4577 8.08174C10.4577 5.33883 6.46832 2.59933 14.4302 1.22702C153.741 -1.51249 234.023 0.629662 373.328 4.74488C389.247 6.11378 377.305 11.5945 365.367 15.708C369.343 14.3357 369.343 18.4492 373.328 17.0769C373.328 21.1888 365.367 28.0418 349.443 29.4141H361.386C365.367 30.783 361.386 33.5259 361.386 36.2637C357.4 36.2637 353.424 36.2637 353.424 37.6377V43.1184H369.343C365.367 43.1184 361.386 43.1184 361.386 44.4873V49.9748C353.424 51.342 341.486 48.6008 333.519 49.9748V54.0816C341.486 55.4556 353.424 54.0816 361.386 54.0816C357.4 55.4556 357.4 56.8245 357.4 59.5674C345.462 60.9397 333.519 56.8245 321.584 60.9397H333.519C325.562 67.7927 305.665 62.3069 293.723 63.6775Z" fill="#7C13CF"/>
</svg>
