<svg width="416" height="65" viewBox="0 0 416 65" fill="none" xmlns="http://www.w3.org/2000/svg">
<path d="M320.705 63.6775C277.66 68.2037 226.864 59.5674 182.627 60.699C130.482 66.1814 64.0566 64.2748 11.9059 64.2748C11.9059 61.5336 16.2525 57.4235 11.9059 56.0512C11.4184 45.2091 4.4538 46.4553 4.4538 40.9746C4.4538 38.2333 17.4876 40.9746 13.1471 38.2333C18.2382 38.2333 18.864 35.2976 17.0031 34.1232C12.6565 31.3803 13.1471 34.1232 8.80344 30.0114C4.45374 25.8996 13.1471 21.7878 8.80344 17.6794H2.71371C-1.62381 14.9331 7.06036 9.45066 2.71371 9.45066C-10.3232 6.70945 28.7897 8.08174 11.4184 8.08174C11.4184 5.33883 7.06253 2.59933 15.7559 1.22702C167.864 -1.51249 255.521 0.629662 407.623 4.74488C425.005 6.11378 411.965 11.5945 398.93 15.708C403.272 14.3357 403.272 18.4492 407.623 17.0769C407.623 21.1888 398.93 28.0418 381.544 29.4141H394.584C398.93 30.783 394.584 33.5259 394.584 36.2637C390.232 36.2637 385.89 36.2637 385.89 37.6377V43.1184H403.272C398.93 43.1184 394.584 43.1184 394.584 44.4873V49.9748C385.89 51.342 372.856 48.6008 364.157 49.9748V54.0816C372.856 55.4556 385.89 54.0816 394.584 54.0816C390.232 55.4556 390.232 56.8245 390.232 59.5674C377.197 60.9397 364.157 56.8245 351.126 60.9397H364.157C355.469 67.7927 333.745 62.3069 320.705 63.6775Z" fill="#CF13C1"/>
</svg>
