<svg width="1366" height="583" viewBox="0 0 1366 583" fill="none" xmlns="http://www.w3.org/2000/svg">
<path opacity="0.6" d="M240.281 696.551C241.93 682.192 236.479 667.253 247.804 661.523C282.734 650.73 304.979 701.211 339.938 690.37C341.47 682.691 343.066 675.051 344.642 667.375C369.672 679.453 395.486 694.676 422.066 707.936C473.335 708.869 524.544 707.683 575.772 704.115C575.293 695.53 575.44 687.665 580.768 684.98C602.359 680.555 630.626 691.173 660.508 696.129C665.096 695.153 669.679 694.156 674.181 693.242C678.101 688.498 679.784 680.441 680.832 675.471C694.365 677.421 706.257 680.633 717.23 684.098C869.581 650.873 1025 609.832 1192.93 570.499C1229.45 552.017 1265.98 533.533 1300.11 526.542C1350.1 521.801 1411.29 542.258 1458.93 548.978C1459.66 466.335 1580.35 436.068 1565.21 351.19C1596.95 355.657 1644.63 362.435 1649.38 339.426C1663.65 270.498 1696.11 192.352 1785.02 157.618C1819.17 150.629 1867.24 184.208 1880.33 171.114C1900.95 150.361 1842.15 118.431 1862.77 97.6931C1618.62 51.6954 1378.17 61.7898 1129.93 40.1332C1041.82 69.3487 470.136 37.1378 325.297 8.68502C320.815 8.65731 316.362 8.56147 311.899 8.58581C232.454 -2.65952 134.825 -4.62264 64.1403 20.8667C31.2357 37.5372 -2.60507 58.3468 -36.2262 78.3398C-22.9597 93.0794 -10.7723 107.748 -0.36486 122.073C-32.1511 117.602 -63.9172 113.114 -77.6505 126.906C-149.142 156.231 -114.638 200.517 -93.9598 258.572C-77.539 284.593 -106.681 319.912 -79.6557 347.321C-100.787 344.36 -111.377 342.87 -132.599 339.836C-137.324 362.843 -65.8529 333.517 -84.3772 370.293C-103.986 359.691 -128.33 371.955 -149.476 368.96C-145.215 401.098 -76.9389 387.082 -83.2578 417.747C-95.4495 423.949 -138.897 370.485 -146.81 408.771C-148.387 416.464 -127.211 419.426 -116.624 420.933C-183.322 427.256 -223.051 461.068 -167.392 508.314C-188.043 505.397 -215.789 486.527 -238.271 489.965C-238.269 490.195 -238.193 490.375 -238.166 490.605C-227.333 492.834 -209.222 502.435 -199.157 503.826C-211.532 502.099 -223.952 500.333 -236.343 498.586C-234.918 504.186 -233.22 509.723 -231.399 515.269C-222.563 520.813 -213.588 525.441 -203.927 526.834C-212.135 525.65 -220.367 524.499 -228.627 523.345C-223.667 536.457 -217.739 549.249 -211.033 561.284C-183.994 588.746 -159.335 627.7 -143.466 629.952C-16.3912 659.194 111.766 683.1 240.281 696.551Z" fill="#B32ABF"/>
</svg>
