<svg width="1366" height="542" viewBox="0 0 1366 542" fill="none" xmlns="http://www.w3.org/2000/svg">
<path opacity="0.95" d="M260.667 677.951C261.792 663.905 255.8 649.511 266.908 643.579C301.42 631.992 325.488 680.515 360.026 668.88C361.278 661.348 362.594 653.852 363.889 646.322C389.341 657.33 415.691 671.378 442.735 683.49C494.002 682.832 545.13 680.109 596.191 675.066C595.4 666.712 595.26 659.041 600.486 656.262C621.9 651.288 650.533 660.774 680.574 664.691C685.124 663.599 689.667 662.488 694.133 661.458C697.877 656.714 699.265 648.81 700.131 643.933C713.725 645.421 725.726 648.187 736.817 651.229C887.847 614.186 1041.66 569.432 1208.03 525.958C1243.85 506.827 1279.69 487.694 1313.53 479.835C1363.31 473.686 1425.2 491.755 1473.05 496.848C1470.77 416.273 1590.28 383.081 1572.05 300.813C1603.93 304.197 1651.82 309.345 1655.74 286.773C1667.47 219.152 1697.07 141.99 1784.65 105.416C1818.52 97.5595 1867.78 128.819 1880.38 115.656C1900.23 94.7979 1840.3 65.4738 1860.15 44.6294C1614.51 7.26041 1374.6 24.4518 1125.75 10.9336C1038.76 42.1043 466.324 28.1887 320.552 4.88434C316.072 4.99439 311.619 5.03713 307.16 5.19732C227.363 -3.33437 129.732 -2.26257 60.0281 24.7434C27.7548 41.9984 -5.30304 63.3164 -38.1712 83.8317C-24.3771 97.7929 -11.6639 111.718 -0.741922 125.362C-32.6681 121.976 -64.5748 118.573 -77.7955 132.436C-148.166 163.205 -112.074 205.316 -89.2944 261.271C-71.9371 286.131 -99.7708 321.448 -71.7661 347.338C-92.9899 345.097 -103.627 343.969 -124.944 341.661C-128.827 364.231 -58.4764 333.461 -75.647 369.872C-95.6279 360.139 -119.507 372.837 -140.747 370.564C-135.318 401.759 -67.6022 386.009 -72.7989 416.092C-84.7557 422.51 -130.12 371.727 -136.632 409.286C-137.928 416.834 -116.659 419.072 -106.024 420.218C-172.444 428.421 -210.912 462.592 -153.572 506.941C-174.314 504.729 -202.728 487.185 -225.068 491.223C-225.058 491.448 -224.975 491.621 -224.94 491.844C-214.033 493.685 -195.586 502.49 -185.477 503.538C-197.906 502.233 -210.381 500.892 -222.827 499.568C-221.199 504.982 -219.301 510.328 -217.279 515.678C-208.247 520.811 -199.109 525.047 -189.406 526.11C-197.651 525.207 -205.918 524.336 -214.215 523.464C-208.78 536.093 -202.39 548.38 -195.25 559.906C-167.23 585.847 -141.169 623.061 -125.23 624.771C2.81902 649.388 131.755 668.771 260.667 677.951Z" fill="#370671"/>
</svg>
