<svg width="1920" height="1553" viewBox="0 0 1920 1553" fill="none" xmlns="http://www.w3.org/2000/svg">
<g clip-path="url(#clip0_2314_25119)">
<path opacity="0.6" fill-rule="evenodd" clip-rule="evenodd" d="M1821.5 1071.61C1829.56 1067.64 1837.54 1064.23 1845.43 1061.45C1893.5 1052.42 1948.95 1067.37 2000.76 1081.35C2025.38 1087.98 2049.17 1094.4 2070.97 1097.92C2070.98 1092.1 2071.19 1086.39 2071.58 1080.79C2053.79 1077.67 2034.92 1073.16 2015.54 1068.53C1963.58 1056.12 1907.96 1042.83 1859.83 1053.05C1847.26 1057.75 1834.46 1064.07 1821.5 1071.61ZM2235.76 677.499C2275.49 683.445 2324.17 687.38 2337.12 655.426C2312.88 671.572 2267.71 665.619 2234.56 661.25L2234.17 661.199C2234.89 666.73 2235.42 672.161 2235.76 677.499ZM2461.83 314.012C2481.73 290.641 2504.69 270.138 2531.21 253.51C2555.69 244.92 2585.3 257.893 2610.97 269.144C2636.07 280.142 2657.41 289.494 2666.55 275.457C2669.68 270.621 2671.5 265.576 2672.31 260.366C2661.33 264.732 2643.77 257.624 2623.85 249.561C2598.08 239.133 2568.37 227.108 2543.86 236.254C2511.48 257.198 2484.45 283.714 2461.83 314.012ZM2425.89 72.5285C2119.8 3.85308 1781.05 -54.6391 1600.79 50.6967C1475.94 118.024 664.442 88.8057 458.714 38.7584C456.407 38.8467 454.105 38.9159 451.805 38.985C447.766 39.1064 443.736 39.2276 439.7 39.4516C326.886 21.1656 188.324 23.6105 88.1795 81.9347C49.0775 113.198 9.05842 150.633 -30.9268 188.036C-38.5818 195.197 -46.2356 202.357 -53.8815 209.472C-45.917 222.134 -38.2239 234.783 -30.8765 247.379C-28.4258 245.045 -25.9747 242.71 -23.5235 240.375C16.3971 202.34 56.3516 164.274 95.4107 132.331C195.529 72.0075 334.351 65.8699 447.456 80.9091C451.499 80.5794 455.537 80.3514 459.584 80.1229C461.887 79.9928 464.193 79.8626 466.505 79.7134C672.826 123.642 1486.02 130.718 1610.85 60.8345C1737.91 67.6684 1863.48 66.0769 1988.38 64.4939C2134.7 62.6393 2280.1 60.7964 2425.89 72.5285ZM-25.3976 295.472C-62.3157 290.307 -96.2226 289.455 -112.354 314.324C-179.329 358.265 -180.464 412.84 -164.955 479.657C-166.789 436.972 -152.805 399.899 -104.628 367.353C-85.3277 337.315 -40.1898 343.258 5.00798 349.209L5.1742 349.231C-4.12223 331.475 -14.3922 313.516 -25.3976 295.472ZM-126.912 638.56C-127.022 649.906 -128.002 661.623 -128.992 673.452C-131.555 704.074 -134.182 735.452 -121.919 763.13C-122.119 749.778 -121.018 736.152 -119.929 722.675C-117.602 693.892 -115.331 665.784 -125.906 642.462C-126.239 641.158 -126.575 639.857 -126.912 638.56ZM-121.227 776.479C-146.49 772.434 -161.421 770.025 -188.957 765.505C-191.854 787.006 -173.712 786.041 -154.802 785.035C-139.75 784.234 -124.211 783.408 -118.407 793.864C-119.777 788.178 -120.678 782.371 -121.227 776.479ZM-116.155 801.779C-115.67 807.158 -116.602 814.167 -119.375 823.274C-114.72 823.884 -109.75 824.536 -104.285 825.251C-109.626 817.809 -113.457 809.945 -116.155 801.779ZM-126.771 822.302C-135.243 818.159 -144.211 817.666 -153.394 818.776C-144.338 819.985 -136.041 821.083 -126.771 822.302ZM-179.344 824.385C-190.701 827.207 -201.994 829.586 -212.72 827.846C-210.106 855.95 -191.68 866.363 -171.754 873.698C-169.738 873.159 -167.719 872.601 -165.699 872.042C-146.594 866.758 -127.478 861.47 -110.664 873.445C-96.2611 829.736 -121.427 831.731 -145.363 833.629C-161.031 834.871 -176.172 836.071 -179.344 824.385ZM-201.331 887.654C-204.605 892.389 -207.141 899.994 -208.679 911.331C-210.079 921.744 -198.273 927.459 -185.648 930.868C-173.648 925.006 -156.203 940.387 -140.514 954.219C-126.927 966.198 -114.658 977.015 -108.385 971.866C-104.073 939.377 -126.638 932.538 -150.876 925.192C-171.959 918.801 -194.308 912.028 -201.331 887.654ZM-194.776 942.475C-257.666 964.161 -293.96 1014.31 -264.7 1079.21C-262.083 1030.66 -217.027 994.975 -155.773 981.973L-156.081 981.931C-171.253 979.896 -200.98 975.907 -198.863 959.875C-197.899 952.631 -196.512 946.906 -194.776 942.475ZM-259.669 1113.98C-264.847 1111.49 -270.17 1108.65 -275.57 1105.78C-296.521 1094.61 -318.632 1082.83 -337.949 1088.12C-337.946 1088.4 -337.908 1088.65 -337.868 1088.9C-337.841 1089.08 -337.812 1089.26 -337.796 1089.46C-330.534 1091.32 -320.96 1096.53 -311.373 1101.75C-300.685 1107.56 -289.979 1113.39 -282.436 1114.6C-294.442 1112.69 -306.478 1110.75 -318.51 1108.8C-324.061 1107.9 -329.611 1107 -335.157 1106.11C-333.099 1117.78 -330.653 1129.3 -328.033 1140.84C-319.827 1148.05 -311.539 1154.44 -302.959 1158.64C-292.628 1160.01 -282.298 1161.38 -271.989 1162.72C-279.552 1161.72 -290.3 1156.25 -301.031 1150.8C-310.658 1145.9 -320.269 1141.01 -327.553 1139.36C-327.57 1139.16 -327.599 1138.99 -327.628 1138.81C-327.668 1138.56 -327.708 1138.32 -327.711 1138.04C-308.377 1132.29 -286.177 1143.34 -265.143 1153.81C-251.459 1160.63 -238.269 1167.19 -226.681 1168.73C-243.222 1149.6 -253.93 1131.25 -259.669 1113.98ZM-313.93 1192.86C-312.453 1197.57 -310.936 1202.25 -309.381 1206.89C-299.009 1208.24 -288.668 1209.6 -278.353 1211.01C-290.787 1209.31 -302.462 1202.06 -313.93 1192.86Z" fill="#B32ABF"/>
<g filter="url(#filter0_b_2314_25119)">
<path d="M325.63 1506.9C327.766 1476.91 349.786 1476.46 365.803 1463.38C415.305 1437.32 447.662 1539.81 497.204 1513.64C499.271 1497.54 501.429 1481.51 503.558 1465.41C539.317 1487.87 576.695 1482.17 614.675 1506.92C724.083 1525.85 750.002 1549.88 797.085 1506.94C796.28 1489.16 831.966 1483.4 839.501 1477.26C870.132 1465.82 910.472 1484.91 953.025 1492.07C959.534 1489.57 966.035 1487.02 972.422 1484.65C977.926 1474.39 980.202 1457.48 981.619 1447.05C1000.89 1449.69 1017.84 1455.11 1033.49 1461.16C1197.89 1517.55 1540.72 1472.03 1708.13 1295.52C1759.78 1253.32 1811.45 1211.12 1859.86 1193.03C1930.86 1177.96 2018.14 1214.04 2085.97 1223.01C2085.81 1051.33 2256.95 835.88 2234.18 661.222C2279.38 667.178 2347.26 676.266 2353.68 627.992C2372.95 483.378 2417.98 317.719 2543.87 236.298C2592.32 218.214 2661.15 282.91 2679.56 254.353C2708.58 209.105 2624.51 148.956 2653.52 103.738C2305.77 33.7618 1914.94 -75.7632 1610.85 60.8643C1486.01 130.743 672.811 123.65 466.488 79.7181C460.115 80.1293 453.783 80.396 447.439 80.9133C334.333 65.8722 195.509 72.0067 95.3914 132.326C48.8548 170.382 1.04776 217.13 -46.4592 262.16C-27.3849 291.378 -9.84592 320.562 5.15779 349.217C-40.096 343.258 -85.321 337.263 -104.645 367.336C-205.854 435.703 -156.159 524.05 -125.918 642.435C-102.196 694.747 -143.12 641.148 -104.301 695.234C-134.385 691.295 -149.462 689.309 -179.677 685.229C-186.06 733.496 -84.8789 665.127 -110.68 743.426C-138.71 723.464 -173.141 751.474 -203.247 747.467C-196.722 813.754 -99.8612 777.509 -108.399 841.844C-125.641 855.997 -188.184 749.528 -198.878 829.852C-201.009 845.992 -170.86 849.926 -155.787 851.95C-250.517 872.055 -306.513 826.431 -226.7 918.711C-256.1 914.814 -295.82 878.534 -327.731 888.024C-327.725 888.502 -327.615 888.868 -327.573 889.343C-312.14 892.838 -286.253 910.88 -271.923 912.716C-289.541 910.423 -307.223 908.056 -324.865 905.724C-322.758 917.202 -320.264 928.523 -317.594 939.848C-304.951 950.435 -292.125 959.105 -278.371 960.988C-290.057 959.388 -301.776 957.858 -313.536 956.326C-306.294 983.033 -297.681 1008.98 -287.972 1033.26C-249.133 1087.46 -213.503 1305.75 -190.91 1308.76C-9.83008 1356.19 142.724 1362.43 325.63 1506.9Z" fill="#370671" fill-opacity="0.9"/>
</g>
</g>
<defs>
<filter id="filter0_b_2314_25119" x="-347.418" y="-24.0723" width="3052.85" height="1574.71" filterUnits="userSpaceOnUse" color-interpolation-filters="sRGB">
<feFlood flood-opacity="0" result="BackgroundImageFix"/>
<feGaussianBlur in="BackgroundImageFix" stdDeviation="9.84375"/>
<feComposite in2="SourceAlpha" operator="in" result="effect1_backgroundBlur_2314_25119"/>
<feBlend mode="normal" in="SourceGraphic" in2="effect1_backgroundBlur_2314_25119" result="shape"/>
</filter>
<clipPath id="clip0_2314_25119">
<rect width="1920" height="1553" fill="white"/>
</clipPath>
</defs>
</svg>
