<svg width="1366" height="766" viewBox="0 0 1366 766" fill="none" xmlns="http://www.w3.org/2000/svg">
<path opacity="0.6" d="M240.28 879.55C241.929 865.192 236.478 850.253 247.803 844.522C282.733 833.73 304.978 884.21 339.937 873.37C341.469 865.69 343.065 858.05 344.641 850.375C369.671 862.453 395.485 877.676 422.065 890.936C473.334 891.869 524.543 890.682 575.771 887.115C575.292 878.529 575.439 870.664 580.767 867.979C602.358 863.554 630.625 874.173 660.507 879.129C665.095 878.153 669.678 877.156 674.18 876.241C678.1 871.497 679.783 863.441 680.831 858.47C694.364 860.42 706.256 863.632 717.229 867.097C869.58 833.872 1025 792.832 1192.93 753.498C1229.45 735.017 1265.98 716.533 1300.1 709.541C1350.1 704.8 1411.29 725.257 1458.93 731.978C1459.66 649.334 1580.35 619.067 1565.21 534.189C1596.95 538.657 1644.63 545.435 1649.38 522.426C1663.64 453.498 1696.11 375.352 1785.02 340.618C1819.17 333.629 1867.24 367.207 1880.33 354.113C1900.95 333.361 1842.14 301.431 1862.77 280.693C1618.62 234.695 1378.17 244.789 1129.93 223.133C1041.82 252.348 470.135 220.137 325.296 191.685C320.814 191.657 316.361 191.561 311.898 191.585C232.453 180.34 134.824 178.377 64.1393 203.866C31.2347 220.537 -2.60604 241.346 -36.2272 261.339C-22.9607 276.079 -10.7732 290.748 -0.365837 305.072C-32.1521 300.601 -63.9182 296.114 -77.6515 309.906C-149.142 339.23 -114.639 383.516 -93.9608 441.572C-77.54 467.592 -106.682 502.912 -79.6567 530.321C-100.788 527.359 -111.378 525.869 -132.6 522.836C-137.325 545.843 -65.8539 516.517 -84.3782 553.292C-103.987 542.691 -128.331 554.954 -149.477 551.959C-145.216 584.098 -76.9399 570.081 -83.2588 600.747C-95.4505 606.948 -138.898 553.485 -146.811 591.77C-148.388 599.464 -127.212 602.425 -116.625 603.933C-183.323 610.256 -223.052 644.068 -167.393 691.313C-188.044 688.396 -215.79 669.526 -238.272 672.964C-238.27 673.194 -238.194 673.374 -238.167 673.605C-227.334 675.833 -209.223 685.435 -199.158 686.826C-211.533 685.098 -223.953 683.333 -236.344 681.586C-234.919 687.185 -233.221 692.723 -231.4 698.269C-222.564 703.813 -213.589 708.44 -203.928 709.833C-212.136 708.65 -220.368 707.498 -228.628 706.344C-223.668 719.456 -217.74 732.248 -211.034 744.283C-183.995 771.746 -159.336 810.699 -143.467 812.952C-16.3921 842.193 111.765 866.1 240.28 879.55Z" fill="#B32ABF"/>
<path d="M260.666 901.951C261.79 887.905 255.799 873.511 266.907 867.579C301.418 855.992 325.486 904.515 360.025 892.88C361.276 885.348 362.593 877.852 363.888 870.322C389.34 881.33 415.69 895.378 442.734 907.49C494 906.832 545.128 904.109 596.189 899.066C595.398 890.712 595.258 883.041 600.485 880.262C621.898 875.288 650.532 884.774 680.573 888.691C685.122 887.599 689.666 886.488 694.132 885.458C697.876 880.714 699.264 872.81 700.13 867.933C713.724 869.421 725.724 872.187 736.816 875.229C887.846 838.186 1041.66 793.432 1208.03 749.958C1243.85 730.827 1279.68 711.694 1313.53 703.835C1363.31 697.686 1425.2 715.755 1473.05 720.848C1470.77 640.273 1590.27 607.081 1572.05 524.813C1603.93 528.197 1651.82 533.345 1655.73 510.773C1667.47 443.152 1697.07 365.99 1784.65 329.416C1818.52 321.56 1867.78 352.819 1880.38 339.656C1900.23 318.798 1840.3 289.474 1860.15 268.629C1614.51 231.26 1374.6 248.452 1125.75 234.934C1038.76 266.104 466.322 252.189 320.551 228.884C316.071 228.994 311.618 229.037 307.159 229.197C227.362 220.666 129.731 221.737 60.0266 248.743C27.7534 265.998 -5.3045 287.316 -38.1726 307.832C-24.3786 321.793 -11.6653 335.718 -0.743387 349.362C-32.6696 345.976 -64.5763 342.573 -77.797 356.436C-148.168 387.205 -112.075 429.316 -89.2958 485.271C-71.9386 510.131 -99.7723 545.448 -71.7676 571.338C-92.9913 569.097 -103.628 567.969 -124.945 565.661C-128.829 588.231 -58.4779 557.461 -75.6485 593.872C-95.6294 584.139 -119.509 596.837 -140.749 594.564C-135.319 625.759 -67.6037 610.009 -72.8004 640.092C-84.7572 646.51 -130.121 595.727 -136.634 633.286C-137.929 640.834 -116.66 643.072 -106.026 644.218C-172.445 652.421 -210.914 686.592 -153.573 730.941C-174.315 728.729 -202.729 711.185 -225.069 715.223C-225.059 715.448 -224.977 715.621 -224.941 715.844C-214.035 717.685 -195.587 726.49 -185.478 727.538C-197.907 726.233 -210.382 724.892 -222.829 723.568C-221.201 728.982 -219.302 734.328 -217.28 739.678C-208.248 744.811 -199.111 749.047 -189.407 750.11C-197.652 749.207 -205.919 748.336 -214.216 747.464C-208.782 760.093 -202.392 772.38 -195.251 783.906C-167.232 809.847 -141.17 847.061 -125.231 848.771C2.81756 873.388 131.753 892.771 260.666 901.951Z" fill="#370671"/>
</svg>
