<svg width="1366" height="588" viewBox="0 0 1366 588" fill="none" xmlns="http://www.w3.org/2000/svg">
<g clip-path="url(#clip0_2123_16457)">
<path opacity="1" fill-rule="evenodd" clip-rule="evenodd" d="M1271.09 743.893C1276.82 741.078 1282.49 738.648 1288.11 736.678C1322.31 730.251 1361.76 740.883 1398.62 750.817C1416.13 755.538 1433.06 760.101 1448.57 762.601C1448.58 758.461 1448.73 754.403 1449 750.421C1436.35 748.201 1422.92 744.995 1409.13 741.703C1372.16 732.877 1332.6 723.429 1298.35 730.698C1289.41 734.04 1280.31 738.539 1271.09 743.893ZM1565.83 463.608C1594.09 467.835 1628.73 470.631 1637.94 447.903C1620.69 459.387 1588.56 455.155 1564.97 452.049L1564.7 452.013C1565.21 455.947 1565.58 459.81 1565.83 463.608ZM1726.66 205.117C1740.83 188.488 1757.16 173.9 1776.04 162.069C1793.46 155.96 1814.52 165.185 1832.79 173.185C1850.64 181.005 1865.82 187.656 1872.33 177.673C1874.55 174.232 1875.85 170.642 1876.43 166.936C1868.62 170.041 1856.12 164.986 1841.95 159.253C1823.61 151.838 1802.48 143.287 1785.04 149.793C1762 164.694 1742.76 183.56 1726.66 205.117ZM1381.67 27.7653C1293.14 26.5017 1204.12 25.2212 1114.08 17.869C1025.25 65.7547 447.897 45.0046 301.529 9.42004C299.223 9.50836 295.756 10.501 292.314 11.4866C289 12.4353 285.71 13.3774 283.5 13.5001C203.236 0.499798 110.751 5.5183 39.4998 47.0001C20.6199 62.0893 2.11269 82.3776 -16.5773 102.866C-30.7006 118.349 -44.9283 133.946 -59.5002 147.5C-56.1183 152.875 -53.037 157.195 -50.151 160.982C-47.2921 158.263 -44.4324 155.54 -41.5724 152.816C-13.169 125.765 15.2585 98.692 43.0488 75.9735C114.281 33.0697 213.049 28.6998 293.519 39.3912C296.396 39.1565 299.269 38.9943 302.148 38.8316C303.787 38.7391 305.427 38.6464 307.072 38.5402C453.862 69.7736 1032.42 74.7765 1121.24 25.0727C1208.87 29.7795 1295.5 28.8559 1381.67 27.7653ZM-42.9041 192.004C-69.1717 188.332 -93.2974 187.726 -104.776 205.414C-152.431 236.668 -153.237 275.482 -142.203 323.003C-143.509 292.642 -133.561 266.273 -99.2791 243.122C-85.5467 221.759 -53.4325 225.984 -21.2759 230.215L-21.1577 230.23C-27.7705 217.605 -35.0757 204.835 -42.9041 192.004ZM-115.143 435.992C-115.22 444.064 -115.919 452.399 -116.624 460.814C-118.448 482.593 -120.318 504.91 -111.592 524.594C-111.735 515.096 -110.951 505.404 -110.175 495.817C-108.519 475.348 -106.902 455.358 -114.425 438.773C-114.663 437.843 -114.902 436.917 -115.143 435.992ZM-111.1 534.084C-129.074 531.208 -139.697 529.495 -159.289 526.281C-161.351 541.572 -148.444 540.885 -134.989 540.169C-124.278 539.599 -113.219 539.01 -109.092 546.452C-110.068 542.407 -110.709 538.275 -111.1 534.084ZM-107.495 552.067C-107.148 555.894 -107.811 560.88 -109.785 567.36C-106.473 567.795 -102.936 568.257 -99.0477 568.766C-102.849 563.472 -105.575 557.877 -107.495 552.067ZM-115.052 566.669C-121.076 563.726 -127.452 563.375 -133.982 564.164C-127.543 565.023 -121.643 565.803 -115.052 566.669ZM-152.45 568.154C-160.531 570.161 -168.566 571.854 -176.197 570.617C-174.338 590.603 -161.23 598.008 -147.054 603.223C-145.619 602.84 -144.181 602.443 -142.743 602.045C-129.151 598.286 -115.55 594.525 -103.588 603.04C-93.3393 571.955 -111.244 573.375 -128.274 574.726C-139.42 575.61 -150.193 576.464 -152.45 568.154ZM-168.095 613.148C-170.425 616.516 -172.23 621.925 -173.325 629.988C-174.321 637.394 -165.922 641.458 -156.94 643.882C-148.402 639.71 -135.99 650.649 -124.828 660.486C-115.161 669.005 -106.432 676.697 -101.969 673.035C-98.9004 649.929 -114.955 645.066 -132.199 639.843C-147.199 635.299 -163.099 630.483 -168.095 613.148ZM-163.433 652.136C-208.18 667.561 -234.004 703.228 -213.185 749.385C-211.324 714.857 -179.266 689.473 -135.684 680.224L-135.904 680.195C-146.697 678.748 -167.847 675.912 -166.341 664.511C-165.655 659.359 -164.668 655.287 -163.433 652.136ZM-209.607 774.111C-213.291 772.338 -217.079 770.321 -220.921 768.274C-235.827 760.334 -251.558 751.954 -265.301 755.719C-265.3 755.921 -265.272 756.096 -265.244 756.276C-265.224 756.402 -265.204 756.53 -265.192 756.672C-260.026 757.998 -253.215 761.702 -246.393 765.411C-238.79 769.546 -231.173 773.688 -225.807 774.552C-234.351 773.193 -242.917 771.808 -251.48 770.424C-255.427 769.785 -259.372 769.147 -263.316 768.512C-261.852 776.812 -260.112 785.008 -258.248 793.209C-252.41 798.34 -246.513 802.884 -240.409 805.873C-233.058 806.847 -225.708 807.818 -218.374 808.772C-223.754 808.062 -231.402 804.174 -239.036 800.292C-245.885 796.81 -252.723 793.333 -257.905 792.16C-257.917 792.021 -257.938 791.895 -257.958 791.771C-257.987 791.594 -258.015 791.422 -258.017 791.223C-244.262 787.132 -228.468 794.991 -213.503 802.437C-203.767 807.281 -194.383 811.95 -186.139 813.042C-197.906 799.441 -205.524 786.387 -209.607 774.111ZM-248.216 830.204C-240.057 836.746 -231.749 841.901 -222.903 843.111C-230.242 842.108 -237.599 841.142 -244.98 840.181C-246.086 836.884 -247.165 833.557 -248.216 830.204Z" fill="#B32ABF"/>
<g filter="url(#filter0_b_2123_16457)">
<path d="M339 541C358.867 541 393.987 517.684 405.383 508.378C440.603 489.84 463.619 562.73 498.868 544.118C500.339 532.664 501.875 521.263 503.39 509.81C528.831 525.783 523.732 534.389 582.116 563.944C640.5 593.5 709.5 572 737.544 546.857C765.587 521.715 737.04 522.589 742.401 518.227C764.194 510.085 792.893 523.661 823.169 528.755C827.799 526.972 832.425 525.159 836.969 523.473C840.885 516.175 842.505 504.153 843.514 496.734C857.222 498.607 869.284 502.464 880.418 506.764C1034.17 446.357 1020.95 564.18 1190.4 493.591C1227.15 463.58 1263.91 433.564 1298.35 420.699C1348.87 409.976 1410.97 435.63 1459.23 442.007C1459.11 319.91 1580.88 266.227 1564.7 142.012C1596.85 146.246 1645.14 152.706 1649.71 118.374C1715.78 -376.934 2125.5 79.0137 1121.24 25.073C1032.42 74.7767 453.861 69.7738 307.072 38.5404C302.538 38.8332 298.033 39.0232 293.519 39.3915C213.049 28.7001 114.281 33.07 43.0485 75.9738C9.9379 103.042 -24.0772 136.291 -57.8785 168.319C-44.3089 189.098 -31.8315 209.852 -21.158 230.231C-53.3542 225.995 -85.5302 221.733 -99.2794 243.122C-171.289 291.75 -135.936 44.5792 -114.426 128.773C27.8445 442.412 -199.597 158.993 -114.426 372C-86.796 410.541 -61.4549 466.23 -45.3814 468.375C83.4485 502.095 311.867 541 339 541Z" fill="#370671" fill-opacity="1"/>
</g>
</g>
<defs>
<filter id="filter0_b_2123_16457" x="-156.314" y="-128.882" width="1958.44" height="721.132" filterUnits="userSpaceOnUse" color-interpolation-filters="sRGB">
<feFlood flood-opacity="0" result="BackgroundImageFix"/>
<feGaussianBlur in="BackgroundImageFix" stdDeviation="7"/>
<feComposite in2="SourceAlpha" operator="in" result="effect1_backgroundBlur_2123_16457"/>
<feBlend mode="normal" in="SourceGraphic" in2="effect1_backgroundBlur_2123_16457" result="shape"/>
</filter>
<clipPath id="clip0_2123_16457">
<rect width="1366" height="588" fill="white"/>
</clipPath>
</defs>
</svg>
